<?xml version="1.0" encoding="UTF-8" standalone="no"?>
<svg
   xmlns:dc="http://purl.org/dc/elements/1.1/"
   xmlns:cc="http://creativecommons.org/ns#"
   xmlns:rdf="http://www.w3.org/1999/02/22-rdf-syntax-ns#"
   xmlns:svg="http://www.w3.org/2000/svg"
   xmlns="http://www.w3.org/2000/svg"
   xmlns:sodipodi="http://sodipodi.sourceforge.net/DTD/sodipodi-0.dtd"
   xmlns:inkscape="http://www.inkscape.org/namespaces/inkscape"
   width="50"
   height="50"
   viewBox="0 0 13.229167 13.229167"
   version="1.1"
   id="svg2245"
   inkscape:version="1.0.1 (3bc2e813f5, 2020-09-07)"
   sodipodi:docname="TransferZoomRight.svg">
  <defs
     id="defs2239" />
  <sodipodi:namedview
     id="base"
     pagecolor="#ffffff"
     bordercolor="#666666"
     borderopacity="1.0"
     inkscape:pageopacity="0.0"
     inkscape:pageshadow="2"
     inkscape:zoom="2.8"
     inkscape:cx="14.390228"
     inkscape:cy="84.709454"
     inkscape:document-units="mm"
     inkscape:current-layer="layer1"
     inkscape:document-rotation="0"
     showgrid="false"
     units="px"
     inkscape:window-width="1200"
     inkscape:window-height="1198"
     inkscape:window-x="1486"
     inkscape:window-y="426"
     inkscape:window-maximized="0" />
  <metadata
     id="metadata2242">
    <rdf:RDF>
      <cc:Work
         rdf:about="">
        <dc:format>image/svg+xml</dc:format>
        <dc:type
           rdf:resource="http://purl.org/dc/dcmitype/StillImage" />
        <dc:title></dc:title>
      </cc:Work>
    </rdf:RDF>
  </metadata>
  <g
     inkscape:label="Layer 1"
     inkscape:groupmode="layer"
     id="layer1">
    <g
       id="g1220"
       transform="matrix(2.6287673,0,0,2.6287673,-354.17989,-619.01919)">
      <path
         fill="currentColor"
         d="m 139.11686,237.63918 -3.31037,-1.95706 c -0.26896,-0.15893 -0.68088,-0.005 -0.68088,0.3884 v 3.91319 c 0,0.35266 0.38277,0.5652 0.68088,0.38839 l 3.31037,-1.95611 c 0.29529,-0.17399 0.29623,-0.60283 0,-0.77681 z"
         id="path1216"
         style="fill:#ffffff;fill-opacity:1;stroke-width:0.00940437" />
      <path
         fill="currentColor"
         d="m 137.78932,239.09071 -0.45834,-0.48908 c -0.0206,-0.0221 -0.0488,-0.0343 -0.0781,-0.0343 h -0.0749 c 0.12689,-0.17317 0.20229,-0.39097 0.20229,-0.62791 0,-0.56364 -0.42801,-1.02036 -0.95624,-1.02036 -0.52823,0 -0.95624,0.45672 -0.95624,1.02036 0,0.56365 0.42801,1.02035 0.95624,1.02035 0.22205,0 0.42616,-0.0804 0.58845,-0.21584 v 0.0799 c 0,0.0314 0.0115,0.0614 0.0321,0.0834 l 0.45835,0.48908 c 0.0432,0.0461 0.1131,0.0461 0.15584,0 l 0.13012,-0.13882 c 0.0432,-0.0461 0.0432,-0.12069 4.6e-4,-0.1668 z m -1.36539,-0.52342 c -0.32504,0 -0.58845,-0.2806 -0.58845,-0.6279 0,-0.34683 0.26296,-0.62792 0.58845,-0.62792 0.32502,0 0.58845,0.2806 0.58845,0.62792 0,0.34681 -0.26297,0.6279 -0.58845,0.6279 z"
         id="path1218"
         style="fill:#d81b60;fill-opacity:1;stroke-width:0.00474892" />
    </g>
  </g>
</svg>
