<?xml version="1.0" encoding="UTF-8" standalone="no"?>
<svg
   xmlns:dc="http://purl.org/dc/elements/1.1/"
   xmlns:cc="http://creativecommons.org/ns#"
   xmlns:rdf="http://www.w3.org/1999/02/22-rdf-syntax-ns#"
   xmlns:svg="http://www.w3.org/2000/svg"
   xmlns="http://www.w3.org/2000/svg"
   xmlns:sodipodi="http://sodipodi.sourceforge.net/DTD/sodipodi-0.dtd"
   xmlns:inkscape="http://www.inkscape.org/namespaces/inkscape"
   width="50"
   height="50"
   viewBox="0 0 13.229166 13.229167"
   version="1.1"
   id="svg2869"
   inkscape:version="1.0.1 (3bc2e813f5, 2020-09-07)"
   sodipodi:docname="TransferCoordsRight.svg">
  <defs
     id="defs2863" />
  <sodipodi:namedview
     id="base"
     pagecolor="#ffffff"
     bordercolor="#666666"
     borderopacity="1.0"
     inkscape:pageopacity="0.0"
     inkscape:pageshadow="2"
     inkscape:zoom="1.979899"
     inkscape:cx="-26.780922"
     inkscape:cy="60.291203"
     inkscape:document-units="mm"
     inkscape:current-layer="layer1"
     inkscape:document-rotation="0"
     showgrid="false"
     units="px"
     inkscape:window-width="1200"
     inkscape:window-height="1198"
     inkscape:window-x="1538"
     inkscape:window-y="426"
     inkscape:window-maximized="0" />
  <metadata
     id="metadata2866">
    <rdf:RDF>
      <cc:Work
         rdf:about="">
        <dc:format>image/svg+xml</dc:format>
        <dc:type
           rdf:resource="http://purl.org/dc/dcmitype/StillImage" />
        <dc:title></dc:title>
      </cc:Work>
    </rdf:RDF>
  </metadata>
  <g
     inkscape:label="Layer 1"
     inkscape:groupmode="layer"
     id="layer1">
    <path
       fill="currentColor"
       d="m 19.329158,-54.784832 v 0.28074 c 0,0.0579 -0.0473,0.10529 -0.10528,0.10529 h -0.4913 v 0.49131 c 0,0.0579 -0.0473,0.10528 -0.10529,0.10528 h -0.28075 c -0.0579,0 -0.10529,-0.0473 -0.10529,-0.10528 v -0.49131 h -0.4913 c -0.0579,0 -0.10528,-0.0473 -0.10528,-0.10529 v -0.28074 c 0,-0.0579 0.0473,-0.10529 0.10528,-0.10529 h 0.4913 v -0.49131 c 0,-0.0579 0.0473,-0.10528 0.10529,-0.10528 h 0.28075 c 0.0579,0 0.10529,0.0473 0.10529,0.10528 v 0.49131 h 0.4913 c 0.0579,0 0.10528,0.0473 0.10528,0.10529 z m 1.76347,2.4978 -0.24829,0.24829 c -0.0825,0.0825 -0.21582,0.0825 -0.29742,0 l -0.87559,-0.87471 c -0.0395,-0.0395 -0.0614,-0.093 -0.0614,-0.14916 v -0.143 c -0.3097,0.24214 -0.69924,0.38603 -1.123,0.38603 -1.00806,0 -1.82488,-0.81681 -1.82488,-1.82489 0,-1.00806 0.81682,-1.82487 1.82488,-1.82487 1.00807,0 1.82488,0.81681 1.82488,1.82487 0,0.42377 -0.14388,0.81331 -0.38604,1.12301 h 0.14301 c 0.0562,0 0.10967,0.0219 0.14915,0.0614 l 0.87471,0.87472 c 0.0816,0.0825 0.0816,0.21582 0,0.2983 z m -1.41252,-2.35744 c 0,-0.65976 -0.53343,-1.19319 -1.1932,-1.19319 -0.65976,0 -1.19319,0.53343 -1.19319,1.19319 0,0.65977 0.53343,1.1932 1.19319,1.1932 0.65977,0 1.1932,-0.53343 1.1932,-1.1932 z"
       id="path1210"
       style="fill:#ffffff;fill-opacity:1;stroke-width:0.00877348" />
    <path
       fill="currentColor"
       d="m 19.254228,-48.727782 v 0.28565 c 0,0.0589 -0.0482,0.10711 -0.10712,0.10711 h -1.49962 c -0.0589,0 -0.10711,-0.0482 -0.10711,-0.10711 v -0.28565 c 0,-0.0589 0.0482,-0.10712 0.10711,-0.10712 h 1.49962 c 0.0589,0 0.10712,0.0482 0.10712,0.10712 z m 1.79419,2.541329 -0.25261,0.252621 c -0.0839,0.0839 -0.21958,0.0839 -0.3026,0 l -0.89086,-0.889961 c -0.0402,-0.0402 -0.0624,-0.0946 -0.0624,-0.15175 v -0.1455 c -0.31511,0.24637 -0.71143,0.39276 -1.14258,0.39276 -1.02564,0 -1.85668,-0.83104 -1.85668,-1.856679 0,-1.02563 0.83104,-1.85668 1.85668,-1.85668 1.02564,0 1.85668,0.83105 1.85668,1.85668 0,0.431139 -0.14639,0.827479 -0.39276,1.142569 h 0.1455 c 0.0571,0 0.11157,0.0224 0.15174,0.0625 l 0.88996,0.88995 c 0.083,0.0839 0.083,0.21959 0,0.3035 z m -1.43713,-2.398509 c 0,-0.67126 -0.54273,-1.21398 -1.21399,-1.21398 -0.67126,0 -1.21398,0.54272 -1.21398,1.21398 0,0.671259 0.54272,1.213979 1.21398,1.213979 0.67126,0 1.21399,-0.54272 1.21399,-1.213979 z"
       id="path1212"
       style="fill:#ffffff;fill-opacity:1;stroke-width:0.00892635" />
    <path
       fill="currentColor"
       d="m 18.908908,-42.489483 c 0.002,-0.155679 -0.12278,-0.28337 -0.27838,-0.285219 -0.15562,-0.002 -0.28338,0.122789 -0.28522,0.278379 -0.002,0.1557 0.12273,0.28342 0.27838,0.28523 0.15564,0.002 0.28336,-0.12278 0.28522,-0.27839 z m 1.24392,1.55974 c 0.86336,-0.84265 0.88014,-2.225569 0.0375,-3.088929 -0.84265,-0.863371 -2.22557,-0.880141 -3.08893,-0.0375 -0.86336,0.84265 -0.88014,2.225571 -0.0375,3.088931 0.84265,0.863369 2.225571,0.880139 3.088931,0.0375 z m -1.70591,-0.15719 -0.47223,-1.31572 a 0.28130749,0.28130749 0 0 1 0.002,-0.19642 l 0.50397,-1.30382 c 0.0581,-0.1504 0.27185,-0.14783 0.32633,0.004 l 0.47216,1.3158 a 0.28130749,0.28130749 0 0 1 -0.002,0.19642 l -0.50397,1.30382 c -0.0582,0.15033 -0.27181,0.14772 -0.32626,-0.004 z"
       id="path1214"
       style="fill:#ffffff;fill-opacity:1;stroke-width:0.0088079" />
    <g
       id="g1249"
       transform="matrix(2.5225165,0,0,2.5225165,-338.61956,-622.20835)">
      <path
         fill="currentColor"
         d="m 138.72944,248.91232 -3.31037,-1.95706 c -0.26896,-0.15893 -0.68088,-0.005 -0.68088,0.3884 v 3.91319 c 0,0.35266 0.38277,0.5652 0.68088,0.38839 l 3.31037,-1.95611 c 0.29529,-0.17399 0.29623,-0.60283 0,-0.77681 z"
         id="path1222"
         style="fill:#ffffff;fill-opacity:1;stroke-width:0.00940437" />
      <text
         xml:space="preserve"
         style="font-size:1.953px;line-height:1.25;font-family:sans-serif;letter-spacing:0px;fill:#d81b60;fill-opacity:1;stroke-width:0.104625"
         x="135.20331"
         y="249.72929"
         id="text1226"><tspan
           sodipodi:role="line"
           id="tspan1224"
           x="135.20331"
           y="249.72929"
           style="font-style:normal;font-variant:normal;font-weight:bold;font-stretch:normal;font-family:sans-serif;-inkscape-font-specification:'sans-serif Bold';fill:#d81b60;fill-opacity:1;stroke-width:0.104625">xy</tspan></text>
    </g>
  </g>
</svg>
